<svg width="382" height="68" viewBox="0 0 382 68" fill="none" xmlns="http://www.w3.org/2000/svg">
<path d="M60.3849 25.512V45H52.5129V10.92H58.7529L74.5449 30.984V10.92H82.4169V45H75.9849L60.3849 25.512ZM86.3987 37.464C86.3987 35.8 86.8627 34.344 87.7907 33.096C88.7187 31.848 89.9987 30.872 91.6307 30.168C93.2627 29.432 95.1347 29.064 97.2467 29.064C98.2707 29.064 99.2787 29.16 100.271 29.352C101.263 29.512 102.127 29.752 102.863 30.072V28.968C102.863 27.592 102.447 26.536 101.615 25.8C100.783 25.064 99.5187 24.696 97.8227 24.696C96.4147 24.696 95.0867 24.936 93.8387 25.416C92.6227 25.896 91.3267 26.584 89.9507 27.48L87.6467 22.584C89.3107 21.496 91.0387 20.68 92.8307 20.136C94.6547 19.592 96.5747 19.32 98.5907 19.32C102.367 19.32 105.295 20.232 107.375 22.056C109.487 23.848 110.543 26.456 110.543 29.88V36.456C110.543 37.224 110.655 37.768 110.879 38.088C111.135 38.376 111.567 38.552 112.175 38.616V45C111.535 45.128 110.927 45.224 110.351 45.288C109.807 45.352 109.327 45.384 108.911 45.384C107.471 45.384 106.367 45.096 105.599 44.52C104.863 43.944 104.399 43.16 104.207 42.168L104.063 41.064C102.943 42.504 101.599 43.608 100.031 44.376C98.4947 45.112 96.8787 45.48 95.1827 45.48C93.5187 45.48 92.0147 45.128 90.6707 44.424C89.3587 43.72 88.3187 42.76 87.5507 41.544C86.7827 40.328 86.3987 38.968 86.3987 37.464ZM101.663 38.424C102.015 38.136 102.303 37.816 102.527 37.464C102.751 37.112 102.863 36.776 102.863 36.456V34.2C102.223 33.944 101.503 33.752 100.703 33.624C99.9347 33.464 99.2147 33.384 98.5427 33.384C97.1347 33.384 95.9667 33.704 95.0387 34.344C94.1107 34.952 93.6467 35.768 93.6467 36.792C93.6467 37.368 93.8067 37.896 94.1267 38.376C94.4467 38.856 94.8787 39.24 95.4227 39.528C95.9987 39.816 96.6707 39.96 97.4387 39.96C98.2067 39.96 98.9747 39.816 99.7427 39.528C100.511 39.24 101.151 38.872 101.663 38.424ZM132.193 43.656C131.489 43.944 130.705 44.232 129.841 44.52C129.009 44.808 128.129 45.032 127.201 45.192C126.273 45.384 125.361 45.48 124.465 45.48C123.185 45.48 122.001 45.272 120.913 44.856C119.857 44.408 119.009 43.688 118.369 42.696C117.761 41.704 117.457 40.392 117.457 38.76V25.608H114.241V19.8H117.457V11.784H125.137V19.8H130.273V25.608H125.137V36.12C125.137 36.952 125.345 37.56 125.761 37.944C126.177 38.296 126.705 38.472 127.345 38.472C127.889 38.472 128.465 38.376 129.073 38.184C129.713 37.992 130.257 37.784 130.705 37.56L132.193 43.656ZM134.946 35.928V19.8H142.626V34.248C142.626 35.784 142.93 36.968 143.538 37.8C144.146 38.6 145.01 39 146.13 39C146.834 39 147.506 38.888 148.146 38.664C148.786 38.408 149.41 38.008 150.018 37.464C150.626 36.92 151.17 36.216 151.65 35.352V19.8H159.33V36.456C159.33 37.224 159.442 37.768 159.666 38.088C159.922 38.376 160.354 38.552 160.962 38.616V45C160.258 45.128 159.634 45.224 159.09 45.288C158.578 45.352 158.114 45.384 157.698 45.384C156.354 45.384 155.282 45.112 154.482 44.568C153.682 43.992 153.186 43.192 152.994 42.168L152.85 40.632C151.698 42.296 150.258 43.528 148.53 44.328C146.834 45.096 144.93 45.48 142.818 45.48C140.258 45.48 138.306 44.664 136.962 43.032C135.618 41.4 134.946 39.032 134.946 35.928ZM181.264 26.376C179.408 26.376 177.728 26.68 176.224 27.288C174.72 27.864 173.632 28.728 172.96 29.88V45H165.28V19.8H172.336V24.888C173.2 23.192 174.32 21.864 175.696 20.904C177.072 19.944 178.512 19.448 180.016 19.416C180.368 19.416 180.624 19.416 180.784 19.416C180.976 19.416 181.136 19.432 181.264 19.464V26.376ZM196.359 45.48C194.215 45.48 192.311 45.144 190.647 44.472C188.983 43.768 187.559 42.824 186.375 41.64C185.223 40.456 184.343 39.096 183.735 37.56C183.127 35.992 182.823 34.36 182.823 32.664C182.823 30.232 183.351 28.024 184.407 26.04C185.495 24.024 187.047 22.408 189.063 21.192C191.079 19.944 193.511 19.32 196.359 19.32C199.207 19.32 201.623 19.928 203.607 21.144C205.623 22.36 207.159 23.96 208.215 25.944C209.271 27.896 209.799 30.024 209.799 32.328C209.799 32.776 209.767 33.224 209.703 33.672C209.671 34.088 209.639 34.456 209.607 34.776H190.983C191.079 35.896 191.383 36.84 191.895 37.608C192.439 38.376 193.127 38.968 193.959 39.384C194.791 39.768 195.671 39.96 196.599 39.96C197.751 39.96 198.823 39.688 199.815 39.144C200.839 38.6 201.543 37.864 201.927 36.936L208.455 38.76C207.815 40.072 206.903 41.24 205.719 42.264C204.567 43.256 203.191 44.04 201.591 44.616C200.023 45.192 198.279 45.48 196.359 45.48ZM190.791 30.072H201.735C201.607 29.016 201.303 28.104 200.823 27.336C200.343 26.536 199.703 25.928 198.903 25.512C198.103 25.064 197.223 24.84 196.263 24.84C195.271 24.84 194.375 25.064 193.575 25.512C192.807 25.928 192.183 26.536 191.703 27.336C191.223 28.104 190.919 29.016 190.791 30.072Z" fill="white"/>
<path d="M221.494 25.512V45H213.622V10.92H219.862L235.654 30.984V10.92H243.526V45H237.094L221.494 25.512ZM260.998 45.48C258.854 45.48 256.934 45.128 255.238 44.424C253.574 43.72 252.166 42.76 251.014 41.544C249.862 40.328 248.982 38.936 248.374 37.368C247.798 35.8 247.51 34.152 247.51 32.424C247.51 30.664 247.798 29 248.374 27.432C248.982 25.864 249.862 24.472 251.014 23.256C252.166 22.04 253.574 21.08 255.238 20.376C256.934 19.672 258.854 19.32 260.998 19.32C263.142 19.32 265.046 19.672 266.71 20.376C268.374 21.08 269.782 22.04 270.934 23.256C272.086 24.472 272.966 25.864 273.574 27.432C274.182 29 274.486 30.664 274.486 32.424C274.486 34.152 274.182 35.8 273.574 37.368C272.966 38.936 272.086 40.328 270.934 41.544C269.782 42.76 268.374 43.72 266.71 44.424C265.046 45.128 263.142 45.48 260.998 45.48ZM255.382 32.424C255.382 33.736 255.622 34.888 256.102 35.88C256.614 36.872 257.286 37.64 258.118 38.184C258.95 38.728 259.91 39 260.998 39C262.054 39 262.998 38.728 263.83 38.184C264.694 37.608 265.366 36.824 265.846 35.832C266.326 34.84 266.566 33.704 266.566 32.424C266.566 31.112 266.326 29.96 265.846 28.968C265.366 27.976 264.694 27.208 263.83 26.664C262.998 26.12 262.054 25.848 260.998 25.848C259.91 25.848 258.95 26.12 258.118 26.664C257.286 27.208 256.614 27.976 256.102 28.968C255.622 29.96 255.382 31.112 255.382 32.424ZM290.295 45.48C288.151 45.48 286.231 45.128 284.535 44.424C282.871 43.72 281.463 42.76 280.311 41.544C279.159 40.328 278.279 38.936 277.671 37.368C277.095 35.8 276.807 34.152 276.807 32.424C276.807 30.664 277.095 29 277.671 27.432C278.279 25.864 279.159 24.472 280.311 23.256C281.463 22.04 282.871 21.08 284.535 20.376C286.231 19.672 288.151 19.32 290.295 19.32C292.439 19.32 294.343 19.672 296.007 20.376C297.671 21.08 299.079 22.04 300.231 23.256C301.383 24.472 302.263 25.864 302.871 27.432C303.479 29 303.783 30.664 303.783 32.424C303.783 34.152 303.479 35.8 302.871 37.368C302.263 38.936 301.383 40.328 300.231 41.544C299.079 42.76 297.671 43.72 296.007 44.424C294.343 45.128 292.439 45.48 290.295 45.48ZM284.679 32.424C284.679 33.736 284.919 34.888 285.399 35.88C285.911 36.872 286.583 37.64 287.415 38.184C288.247 38.728 289.207 39 290.295 39C291.351 39 292.295 38.728 293.127 38.184C293.991 37.608 294.663 36.824 295.143 35.832C295.623 34.84 295.863 33.704 295.863 32.424C295.863 31.112 295.623 29.96 295.143 28.968C294.663 27.976 293.991 27.208 293.127 26.664C292.295 26.12 291.351 25.848 290.295 25.848C289.207 25.848 288.247 26.12 287.415 26.664C286.583 27.208 285.911 27.976 285.399 28.968C284.919 29.96 284.679 31.112 284.679 32.424ZM324.536 45L317.96 34.92L315.272 37.656V45H307.592V9.96H315.272V30.216L323.816 19.8H331.928L322.856 30.648L332.696 45H324.536Z" fill="#62DDA9"/>
<path d="M150.16 52.78C150 52.5933 149.787 52.4133 149.52 52.24C149.253 52.0667 148.953 51.9133 148.62 51.78C148.287 51.6333 147.92 51.52 147.52 51.44C147.133 51.3467 146.727 51.3 146.3 51.3C145.207 51.3 144.4 51.5067 143.88 51.92C143.36 52.3333 143.1 52.9 143.1 53.62C143.1 54.1267 143.233 54.5267 143.5 54.82C143.767 55.1133 144.173 55.3533 144.72 55.54C145.28 55.7267 145.987 55.92 146.84 56.12C147.827 56.3333 148.68 56.5933 149.4 56.9C150.12 57.2067 150.673 57.62 151.06 58.14C151.447 58.6467 151.64 59.3267 151.64 60.18C151.64 60.86 151.507 61.4533 151.24 61.96C150.987 62.4533 150.627 62.8667 150.16 63.2C149.693 63.52 149.147 63.76 148.52 63.92C147.893 64.0667 147.213 64.14 146.48 64.14C145.76 64.14 145.053 64.0667 144.36 63.92C143.68 63.76 143.033 63.5333 142.42 63.24C141.807 62.9467 141.233 62.58 140.7 62.14L141.56 60.62C141.773 60.8467 142.047 61.0733 142.38 61.3C142.727 61.5133 143.113 61.7133 143.54 61.9C143.98 62.0867 144.453 62.24 144.96 62.36C145.467 62.4667 145.987 62.52 146.52 62.52C147.533 62.52 148.32 62.34 148.88 61.98C149.44 61.6067 149.72 61.0667 149.72 60.36C149.72 59.8267 149.56 59.4 149.24 59.08C148.933 58.76 148.473 58.4933 147.86 58.28C147.247 58.0667 146.5 57.8533 145.62 57.64C144.66 57.4 143.853 57.14 143.2 56.86C142.547 56.5667 142.053 56.1867 141.72 55.72C141.4 55.2533 141.24 54.6467 141.24 53.9C141.24 52.9933 141.46 52.2267 141.9 51.6C142.34 50.9733 142.947 50.5 143.72 50.18C144.493 49.86 145.367 49.7 146.34 49.7C146.98 49.7 147.573 49.7667 148.12 49.9C148.68 50.0333 149.2 50.22 149.68 50.46C150.16 50.7 150.6 50.9867 151 51.32L150.16 52.78ZM153.727 64V53.56H155.487V64H153.727ZM153.727 51.6V49.4H155.487V51.6H153.727ZM167.397 64H165.637V58.16C165.637 57.0533 165.464 56.2467 165.117 55.74C164.784 55.22 164.27 54.96 163.577 54.96C163.097 54.96 162.617 55.08 162.137 55.32C161.67 55.56 161.25 55.8867 160.877 56.3C160.517 56.7 160.257 57.1667 160.097 57.7V64H158.337V53.56H159.937V55.8C160.217 55.3067 160.577 54.88 161.017 54.52C161.457 54.16 161.957 53.88 162.517 53.68C163.077 53.48 163.664 53.38 164.277 53.38C164.877 53.38 165.377 53.4933 165.777 53.72C166.19 53.9333 166.51 54.24 166.737 54.64C166.977 55.0267 167.144 55.4867 167.237 56.02C167.344 56.5533 167.397 57.1333 167.397 57.76V64ZM174.754 64.2C173.967 64.2 173.247 64.06 172.594 63.78C171.954 63.4867 171.394 63.0867 170.914 62.58C170.447 62.0733 170.08 61.4933 169.814 60.84C169.56 60.1867 169.434 59.4933 169.434 58.76C169.434 57.7733 169.654 56.8733 170.094 56.06C170.534 55.2467 171.154 54.6 171.954 54.12C172.754 53.6267 173.68 53.38 174.734 53.38C175.76 53.38 176.654 53.6133 177.414 54.08C178.187 54.5333 178.76 55.1467 179.134 55.92L177.414 56.46C177.147 55.9667 176.774 55.5867 176.294 55.32C175.814 55.04 175.28 54.9 174.694 54.9C174.054 54.9 173.467 55.0667 172.934 55.4C172.414 55.7333 172 56.1933 171.694 56.78C171.387 57.3533 171.234 58.0133 171.234 58.76C171.234 59.4933 171.387 60.16 171.694 60.76C172.014 61.3467 172.434 61.8133 172.954 62.16C173.487 62.5067 174.074 62.68 174.714 62.68C175.127 62.68 175.52 62.6067 175.894 62.46C176.28 62.3133 176.614 62.12 176.894 61.88C177.187 61.6267 177.387 61.3533 177.494 61.06L179.214 61.58C179 62.0867 178.674 62.54 178.234 62.94C177.807 63.3267 177.294 63.6333 176.694 63.86C176.107 64.0867 175.46 64.2 174.754 64.2ZM185.73 64.2C184.944 64.2 184.224 64.06 183.57 63.78C182.93 63.4867 182.37 63.0933 181.89 62.6C181.424 62.0933 181.057 61.5133 180.79 60.86C180.537 60.2067 180.41 59.5133 180.41 58.78C180.41 57.7933 180.637 56.8933 181.09 56.08C181.544 55.2667 182.17 54.6133 182.97 54.12C183.784 53.6267 184.71 53.38 185.75 53.38C186.804 53.38 187.717 53.6333 188.49 54.14C189.277 54.6333 189.884 55.2867 190.31 56.1C190.75 56.9 190.97 57.7667 190.97 58.7C190.97 58.8333 190.964 58.9667 190.95 59.1C190.95 59.22 190.944 59.3133 190.93 59.38H182.27C182.324 60.06 182.51 60.6667 182.83 61.2C183.164 61.72 183.59 62.1333 184.11 62.44C184.63 62.7333 185.19 62.88 185.79 62.88C186.43 62.88 187.03 62.72 187.59 62.4C188.164 62.08 188.557 61.66 188.77 61.14L190.29 61.56C190.064 62.0667 189.724 62.52 189.27 62.92C188.83 63.32 188.304 63.6333 187.69 63.86C187.09 64.0867 186.437 64.2 185.73 64.2ZM182.21 58.16H189.33C189.277 57.48 189.084 56.88 188.75 56.36C188.417 55.84 187.99 55.4333 187.47 55.14C186.95 54.8467 186.377 54.7 185.75 54.7C185.137 54.7 184.57 54.8467 184.05 55.14C183.53 55.4333 183.104 55.84 182.77 56.36C182.45 56.88 182.264 57.48 182.21 58.16ZM197.425 64C197.425 63.4667 197.465 62.9667 197.545 62.5C197.639 62.0333 197.799 61.5867 198.025 61.16C198.265 60.7333 198.599 60.3267 199.025 59.94C199.452 59.54 200.005 59.1533 200.685 58.78C201.085 58.5533 201.485 58.34 201.885 58.14C202.299 57.94 202.679 57.7267 203.025 57.5C203.385 57.2733 203.672 57.0267 203.885 56.76C204.099 56.48 204.205 56.16 204.205 55.8C204.205 55.4933 204.112 55.2 203.925 54.92C203.752 54.6267 203.485 54.3933 203.125 54.22C202.779 54.0333 202.345 53.94 201.825 53.94C201.425 53.94 201.059 53.9933 200.725 54.1C200.405 54.2067 200.112 54.3467 199.845 54.52C199.592 54.68 199.365 54.8533 199.165 55.04C198.979 55.2133 198.819 55.3733 198.685 55.52L197.585 54.28C197.692 54.16 197.872 54 198.125 53.8C198.379 53.5867 198.699 53.3733 199.085 53.16C199.472 52.9467 199.919 52.7667 200.425 52.62C200.945 52.46 201.512 52.38 202.125 52.38C202.952 52.38 203.659 52.5267 204.245 52.82C204.845 53.1 205.305 53.4867 205.625 53.98C205.945 54.46 206.105 55 206.105 55.6C206.105 56.12 205.992 56.5733 205.765 56.96C205.552 57.3467 205.272 57.6867 204.925 57.98C204.592 58.2733 204.239 58.5267 203.865 58.74C203.505 58.94 203.179 59.1133 202.885 59.26C202.285 59.5533 201.772 59.82 201.345 60.06C200.919 60.3 200.565 60.54 200.285 60.78C200.019 61.0067 199.799 61.2467 199.625 61.5C199.465 61.7533 199.345 62.0533 199.265 62.4H206.325V64H197.425ZM218.468 58.14C218.468 59.3133 218.248 60.36 217.808 61.28C217.368 62.1867 216.768 62.9 216.008 63.42C215.248 63.94 214.382 64.2 213.408 64.2C212.435 64.2 211.568 63.94 210.808 63.42C210.048 62.9 209.448 62.1867 209.008 61.28C208.568 60.36 208.348 59.3133 208.348 58.14C208.348 56.9667 208.568 55.9267 209.008 55.02C209.448 54.1 210.048 53.38 210.808 52.86C211.568 52.3267 212.435 52.06 213.408 52.06C214.382 52.06 215.248 52.3267 216.008 52.86C216.768 53.38 217.368 54.1 217.808 55.02C218.248 55.9267 218.468 56.9667 218.468 58.14ZM216.688 58.14C216.688 57.26 216.548 56.4867 216.268 55.82C215.988 55.1533 215.602 54.6333 215.108 54.26C214.615 53.8867 214.048 53.7 213.408 53.7C212.755 53.7 212.182 53.8867 211.688 54.26C211.195 54.6333 210.808 55.1533 210.528 55.82C210.248 56.4867 210.108 57.26 210.108 58.14C210.108 59.02 210.248 59.7933 210.528 60.46C210.808 61.1133 211.195 61.6267 211.688 62C212.182 62.3733 212.755 62.56 213.408 62.56C214.048 62.56 214.615 62.3733 215.108 62C215.602 61.6267 215.988 61.1133 216.268 60.46C216.548 59.7933 216.688 59.02 216.688 58.14ZM220.414 64C220.414 63.4667 220.454 62.9667 220.534 62.5C220.627 62.0333 220.787 61.5867 221.014 61.16C221.254 60.7333 221.587 60.3267 222.014 59.94C222.44 59.54 222.994 59.1533 223.674 58.78C224.074 58.5533 224.474 58.34 224.874 58.14C225.287 57.94 225.667 57.7267 226.014 57.5C226.374 57.2733 226.66 57.0267 226.874 56.76C227.087 56.48 227.194 56.16 227.194 55.8C227.194 55.4933 227.1 55.2 226.914 54.92C226.74 54.6267 226.474 54.3933 226.114 54.22C225.767 54.0333 225.334 53.94 224.814 53.94C224.414 53.94 224.047 53.9933 223.714 54.1C223.394 54.2067 223.1 54.3467 222.834 54.52C222.58 54.68 222.354 54.8533 222.154 55.04C221.967 55.2133 221.807 55.3733 221.674 55.52L220.574 54.28C220.68 54.16 220.86 54 221.114 53.8C221.367 53.5867 221.687 53.3733 222.074 53.16C222.46 52.9467 222.907 52.7667 223.414 52.62C223.934 52.46 224.5 52.38 225.114 52.38C225.94 52.38 226.647 52.5267 227.234 52.82C227.834 53.1 228.294 53.4867 228.614 53.98C228.934 54.46 229.094 55 229.094 55.6C229.094 56.12 228.98 56.5733 228.754 56.96C228.54 57.3467 228.26 57.6867 227.914 57.98C227.58 58.2733 227.227 58.5267 226.854 58.74C226.494 58.94 226.167 59.1133 225.874 59.26C225.274 59.5533 224.76 59.82 224.334 60.06C223.907 60.3 223.554 60.54 223.274 60.78C223.007 61.0067 222.787 61.2467 222.614 61.5C222.454 61.7533 222.334 62.0533 222.254 62.4H229.314V64H220.414ZM237.157 66.54V63.16H230.737V61.6L237.717 52.58H238.917V61.56H240.677V63.16H238.917V66.54H237.157ZM232.557 61.56H237.337V55.3L232.557 61.56Z" fill="white"/>
</svg>
