<svg width="351" height="45" viewBox="0 0 351 45" fill="none" xmlns="http://www.w3.org/2000/svg">
<path d="M9.92 19.64V44H0.0800002V1.4H7.88L27.62 26.48V1.4H37.46V44H29.42L9.92 19.64ZM42.4372 34.58C42.4372 32.5 43.0172 30.68 44.1772 29.12C45.3372 27.56 46.9372 26.34 48.9772 25.46C51.0172 24.54 53.3572 24.08 55.9972 24.08C57.2772 24.08 58.5372 24.2 59.7772 24.44C61.0172 24.64 62.0972 24.94 63.0172 25.34V23.96C63.0172 22.24 62.4972 20.92 61.4572 20C60.4172 19.08 58.8372 18.62 56.7172 18.62C54.9572 18.62 53.2972 18.92 51.7372 19.52C50.2172 20.12 48.5972 20.98 46.8772 22.1L43.9972 15.98C46.0772 14.62 48.2372 13.6 50.4772 12.92C52.7572 12.24 55.1572 11.9 57.6772 11.9C62.3972 11.9 66.0572 13.04 68.6572 15.32C71.2972 17.56 72.6172 20.82 72.6172 25.1V33.32C72.6172 34.28 72.7572 34.96 73.0372 35.36C73.3572 35.72 73.8972 35.94 74.6572 36.02V44C73.8572 44.16 73.0972 44.28 72.3772 44.36C71.6972 44.44 71.0972 44.48 70.5772 44.48C68.7772 44.48 67.3972 44.12 66.4372 43.4C65.5172 42.68 64.9372 41.7 64.6972 40.46L64.5172 39.08C63.1172 40.88 61.4372 42.26 59.4772 43.22C57.5572 44.14 55.5372 44.6 53.4172 44.6C51.3372 44.6 49.4572 44.16 47.7772 43.28C46.1372 42.4 44.8372 41.2 43.8772 39.68C42.9172 38.16 42.4372 36.46 42.4372 34.58ZM61.5172 35.78C61.9572 35.42 62.3172 35.02 62.5972 34.58C62.8772 34.14 63.0172 33.72 63.0172 33.32V30.5C62.2172 30.18 61.3172 29.94 60.3172 29.78C59.3572 29.58 58.4572 29.48 57.6172 29.48C55.8572 29.48 54.3972 29.88 53.2372 30.68C52.0772 31.44 51.4972 32.46 51.4972 33.74C51.4972 34.46 51.6972 35.12 52.0972 35.72C52.4972 36.32 53.0372 36.8 53.7172 37.16C54.4372 37.52 55.2772 37.7 56.2372 37.7C57.1972 37.7 58.1572 37.52 59.1172 37.16C60.0772 36.8 60.8772 36.34 61.5172 35.78ZM99.6805 42.32C98.8005 42.68 97.8205 43.04 96.7405 43.4C95.7005 43.76 94.6005 44.04 93.4405 44.24C92.2805 44.48 91.1405 44.6 90.0205 44.6C88.4205 44.6 86.9405 44.34 85.5805 43.82C84.2605 43.26 83.2005 42.36 82.4005 41.12C81.6405 39.88 81.2605 38.24 81.2605 36.2V19.76H77.2405V12.5H81.2605V2.48H90.8605V12.5H97.2805V19.76H90.8605V32.9C90.8605 33.94 91.1205 34.7 91.6405 35.18C92.1605 35.62 92.8205 35.84 93.6205 35.84C94.3005 35.84 95.0205 35.72 95.7805 35.48C96.5805 35.24 97.2605 34.98 97.8205 34.7L99.6805 42.32ZM103.121 32.66V12.5H112.721V30.56C112.721 32.48 113.101 33.96 113.861 35C114.621 36 115.701 36.5 117.101 36.5C117.981 36.5 118.821 36.36 119.621 36.08C120.421 35.76 121.201 35.26 121.961 34.58C122.721 33.9 123.401 33.02 124.001 31.94V12.5H133.601V33.32C133.601 34.28 133.741 34.96 134.021 35.36C134.341 35.72 134.881 35.94 135.641 36.02V44C134.761 44.16 133.981 44.28 133.301 44.36C132.661 44.44 132.081 44.48 131.561 44.48C129.881 44.48 128.541 44.14 127.541 43.46C126.541 42.74 125.921 41.74 125.681 40.46L125.501 38.54C124.061 40.62 122.261 42.16 120.101 43.16C117.981 44.12 115.601 44.6 112.961 44.6C109.761 44.6 107.321 43.58 105.641 41.54C103.961 39.5 103.121 36.54 103.121 32.66ZM161.018 20.72C158.698 20.72 156.598 21.1 154.718 21.86C152.838 22.58 151.478 23.66 150.638 25.1V44H141.038V12.5H149.858V18.86C150.938 16.74 152.338 15.08 154.058 13.88C155.778 12.68 157.578 12.06 159.458 12.02C159.898 12.02 160.218 12.02 160.418 12.02C160.658 12.02 160.858 12.04 161.018 12.08V20.72ZM179.887 44.6C177.207 44.6 174.827 44.18 172.747 43.34C170.667 42.46 168.887 41.28 167.407 39.8C165.967 38.32 164.867 36.62 164.107 34.7C163.347 32.74 162.967 30.7 162.967 28.58C162.967 25.54 163.627 22.78 164.947 20.3C166.307 17.78 168.247 15.76 170.767 14.24C173.287 12.68 176.327 11.9 179.887 11.9C183.447 11.9 186.467 12.66 188.947 14.18C191.467 15.7 193.387 17.7 194.707 20.18C196.027 22.62 196.687 25.28 196.687 28.16C196.687 28.72 196.647 29.28 196.567 29.84C196.527 30.36 196.487 30.82 196.447 31.22H173.167C173.287 32.62 173.667 33.8 174.307 34.76C174.987 35.72 175.847 36.46 176.887 36.98C177.927 37.46 179.027 37.7 180.187 37.7C181.627 37.7 182.967 37.36 184.207 36.68C185.487 36 186.367 35.08 186.847 33.92L195.007 36.2C194.207 37.84 193.067 39.3 191.587 40.58C190.147 41.82 188.427 42.8 186.427 43.52C184.467 44.24 182.287 44.6 179.887 44.6ZM172.927 25.34H186.607C186.447 24.02 186.067 22.88 185.467 21.92C184.867 20.92 184.067 20.16 183.067 19.64C182.067 19.08 180.967 18.8 179.767 18.8C178.527 18.8 177.407 19.08 176.407 19.64C175.447 20.16 174.667 20.92 174.067 21.92C173.467 22.88 173.087 24.02 172.927 25.34Z" fill="white"/>
<path d="M211.307 19.64V44H201.467V1.4H209.267L229.007 26.48V1.4H238.847V44H230.807L211.307 19.64ZM260.687 44.6C258.007 44.6 255.607 44.16 253.487 43.28C251.407 42.4 249.647 41.2 248.207 39.68C246.767 38.16 245.667 36.42 244.907 34.46C244.187 32.5 243.827 30.44 243.827 28.28C243.827 26.08 244.187 24 244.907 22.04C245.667 20.08 246.767 18.34 248.207 16.82C249.647 15.3 251.407 14.1 253.487 13.22C255.607 12.34 258.007 11.9 260.687 11.9C263.367 11.9 265.747 12.34 267.827 13.22C269.907 14.1 271.667 15.3 273.107 16.82C274.547 18.34 275.647 20.08 276.407 22.04C277.167 24 277.547 26.08 277.547 28.28C277.547 30.44 277.167 32.5 276.407 34.46C275.647 36.42 274.547 38.16 273.107 39.68C271.667 41.2 269.907 42.4 267.827 43.28C265.747 44.16 263.367 44.6 260.687 44.6ZM253.667 28.28C253.667 29.92 253.967 31.36 254.567 32.6C255.207 33.84 256.047 34.8 257.087 35.48C258.127 36.16 259.327 36.5 260.687 36.5C262.007 36.5 263.187 36.16 264.227 35.48C265.307 34.76 266.147 33.78 266.747 32.54C267.347 31.3 267.647 29.88 267.647 28.28C267.647 26.64 267.347 25.2 266.747 23.96C266.147 22.72 265.307 21.76 264.227 21.08C263.187 20.4 262.007 20.06 260.687 20.06C259.327 20.06 258.127 20.4 257.087 21.08C256.047 21.76 255.207 22.72 254.567 23.96C253.967 25.2 253.667 26.64 253.667 28.28ZM297.308 44.6C294.628 44.6 292.228 44.16 290.108 43.28C288.028 42.4 286.268 41.2 284.828 39.68C283.388 38.16 282.288 36.42 281.528 34.46C280.808 32.5 280.448 30.44 280.448 28.28C280.448 26.08 280.808 24 281.528 22.04C282.288 20.08 283.388 18.34 284.828 16.82C286.268 15.3 288.028 14.1 290.108 13.22C292.228 12.34 294.628 11.9 297.308 11.9C299.988 11.9 302.368 12.34 304.448 13.22C306.528 14.1 308.288 15.3 309.728 16.82C311.168 18.34 312.268 20.08 313.028 22.04C313.788 24 314.168 26.08 314.168 28.28C314.168 30.44 313.788 32.5 313.028 34.46C312.268 36.42 311.168 38.16 309.728 39.68C308.288 41.2 306.528 42.4 304.448 43.28C302.368 44.16 299.988 44.6 297.308 44.6ZM290.288 28.28C290.288 29.92 290.588 31.36 291.188 32.6C291.828 33.84 292.668 34.8 293.708 35.48C294.748 36.16 295.948 36.5 297.308 36.5C298.628 36.5 299.808 36.16 300.848 35.48C301.928 34.76 302.768 33.78 303.368 32.54C303.968 31.3 304.268 29.88 304.268 28.28C304.268 26.64 303.968 25.2 303.368 23.96C302.768 22.72 301.928 21.76 300.848 21.08C299.808 20.4 298.628 20.06 297.308 20.06C295.948 20.06 294.748 20.4 293.708 21.08C292.668 21.76 291.828 22.72 291.188 23.96C290.588 25.2 290.288 26.64 290.288 28.28ZM340.109 44L331.889 31.4L328.529 34.82V44H318.929V0.199999H328.529V25.52L339.209 12.5H349.349L338.009 26.06L350.309 44H340.109Z" fill="#62DDA9"/>
</svg>
